<?xml version="1.0" encoding="UTF-8"?>
<svg xmlns="http://www.w3.org/2000/svg" xmlns:xlink="http://www.w3.org/1999/xlink" width="100pt" height="50pt" viewBox="0 0 150 73" version="1.1">
<g id="surface1">
<path style=" stroke:none;fill-rule:nonzero;fill:rgb(100%,100%,100%);fill-opacity:1;" d="M 147.363281 40.914062 C 146.402344 40.191406 146.246094 40.082031 140.488281 38.183594 C 145.476562 36.957031 145.691406 36.828125 146.574219 36.246094 C 148.578125 34.890625 149.644531 32.636719 149.488281 30.199219 L 149.46875 29.933594 C 149.0625 26.019531 144.023438 18.636719 140.628906 16.976562 C 138.390625 15.910156 135.898438 16.058594 133.9375 17.375 C 133.015625 17.988281 132.890625 18.070312 129.101562 23.246094 C 128.730469 17.199219 128.019531 6.535156 127.84375 5.539062 L 127.808594 5.308594 L 127.75 5.089844 C 127.105469 2.746094 125.265625 0.988281 122.832031 0.375 C 118.769531 -0.636719 108.03125 2.390625 105.148438 5.363281 C 103.457031 7.128906 102.804688 9.503906 103.390625 11.734375 L 103.507812 12.175781 L 103.707031 12.589844 C 103.984375 13.15625 104.710938 14.363281 110.945312 24.144531 L 113.242188 27.761719 C 107.660156 25.480469 107.4375 25.472656 106.285156 25.460938 C 104.085938 25.367188 101.878906 26.542969 100.550781 28.621094 L 100.527344 28.664062 C 99.84375 29.765625 99.417969 31.265625 99.15625 32.835938 C 97.359375 30.414062 94.652344 28.46875 90.546875 27.664062 C 87.636719 27.082031 84.910156 27.433594 82.339844 28.472656 C 79.984375 26.96875 76.746094 26.796875 74.039062 28.339844 C 73.203125 28.816406 72.578125 29.382812 72.089844 29.984375 L 72.089844 26.664062 L 71.832031 24.691406 L 71.75 24.335938 C 71.207031 22.195312 69.589844 20.390625 67.429688 19.503906 L 67.410156 19.496094 C 65.035156 18.535156 62.371094 18.765625 60.113281 20.117188 C 57.707031 21.539062 56.472656 23.898438 56.472656 27.125 L 56.472656 33.894531 C 55.617188 32.5625 54.558594 31.402344 53.304688 30.453125 C 49.925781 27.890625 45.390625 27.027344 40.207031 27.957031 C 37.199219 28.480469 34.683594 29.792969 32.691406 31.71875 C 32.660156 31.65625 32.625 31.582031 32.59375 31.519531 C 31.582031 29.707031 29.9375 28.460938 27.835938 27.910156 C 24.324219 26.945312 19.867188 28.140625 18.027344 34.421875 C 18.027344 34.421875 17.726562 35.4375 17.320312 36.824219 C 16.511719 35.34375 14.425781 31.308594 14.339844 31.1875 C 12.457031 28.335938 8.6875 27.097656 5.320312 28.4375 C 2.0625 29.664062 0.179688 32.527344 0.179688 35.894531 C 0.179688 36.957031 0.363281 38.0625 0.75 39.1875 L 0.847656 39.460938 C 0.847656 39.460938 7.535156 53.085938 9.472656 57.027344 C 6.359375 57.847656 4.144531 60.167969 3.785156 63.351562 C 3.746094 63.65625 3.726562 63.960938 3.726562 64.261719 C 3.726562 66.285156 4.566406 68.21875 6.109375 69.636719 C 8.449219 71.796875 12.085938 72.511719 16.351562 71.636719 C 20.992188 70.726562 23.660156 67.929688 25.527344 62 L 28.371094 53.0625 C 29.300781 56.828125 30.984375 59.285156 32.582031 60.863281 C 34.878906 63.136719 39.089844 65.648438 46.058594 64.707031 C 51.234375 63.984375 54.820312 61.667969 56.753906 58.941406 L 56.878906 59.601562 C 57.433594 61.542969 58.933594 63.269531 60.945312 64.1875 C 63.050781 65.164062 65.492188 65.148438 67.628906 64.144531 C 68.746094 63.660156 69.691406 62.894531 70.425781 61.933594 L 70.425781 64.753906 C 70.425781 69.410156 73.121094 71.390625 74.726562 72.160156 C 76.824219 73.214844 79.332031 73.296875 81.519531 72.347656 C 83.582031 71.453125 85.113281 69.753906 85.714844 67.6875 L 85.808594 67.367188 L 86.089844 65.449219 C 86.089844 65.449219 86.089844 64.707031 86.089844 64.621094 C 88.890625 64.910156 91.8125 64.453125 94.386719 63.117188 C 95.523438 62.527344 96.519531 61.816406 97.410156 60.996094 L 99.300781 60.996094 C 100.332031 61.539062 101.5 61.875 102.757812 61.875 C 104.023438 61.875 105.191406 61.539062 106.21875 60.996094 L 111.703125 60.996094 C 115.335938 63.042969 120.644531 64.589844 123.488281 64.101562 C 125.9375 63.667969 127.863281 62.09375 128.679688 59.882812 L 128.722656 59.773438 C 129.066406 58.769531 129.125 58.582031 129.148438 52.902344 C 132.261719 57.933594 132.421875 58.066406 133.296875 58.753906 C 135.175781 60.222656 137.648438 60.542969 139.929688 59.625 C 143.589844 58.15625 149.1875 51.042969 149.75 47.136719 C 149.796875 46.796875 149.824219 46.453125 149.824219 46.117188 C 149.824219 44.070312 148.941406 42.175781 147.363281 40.914062 Z M 90.527344 27.660156 C 90.535156 27.664062 90.539062 27.664062 90.546875 27.664062 C 90.550781 27.667969 90.558594 27.667969 90.566406 27.667969 Z M 139.933594 59.625 L 139.929688 59.625 C 139.921875 59.625 139.917969 59.632812 139.910156 59.636719 L 139.933594 59.625 "/>
<path style="fill:none;stroke-width:0.145;stroke-linecap:round;stroke-linejoin:round;stroke:rgb(74.117647%,73.72549%,73.72549%);stroke-opacity:1;stroke-miterlimit:4;" d="M 0.000484722 0.000753263 C -0.389659 0.294154 -0.453097 0.338561 -2.790788 1.109333 C -0.765529 1.607321 -0.678302 1.659658 -0.319877 1.895964 C 0.493715 2.446289 0.92668 3.361382 0.863242 4.351016 L 0.855312 4.45886 C 0.690373 6.047983 -1.355503 9.045429 -2.733694 9.719458 C -3.642444 10.152423 -4.65428 10.092157 -5.450427 9.557691 C -5.824712 9.308697 -5.875462 9.275392 -7.413834 7.174008 C -7.564499 9.629059 -7.853142 13.958704 -7.92451 14.363121 L -7.938784 14.456692 L -7.962573 14.545506 C -8.224255 15.497076 -8.971237 16.210754 -9.959285 16.459748 C -11.608673 16.870509 -15.968451 15.641397 -17.138883 14.434489 C -17.825599 13.717639 -18.090453 12.753382 -17.85256 11.847804 L -17.804982 11.668591 L -17.724098 11.500481 C -17.611496 11.270518 -17.316509 10.780459 -14.785332 6.809239 L -13.852793 5.340649 C -16.119117 6.266844 -16.209516 6.270016 -16.677371 6.274774 C -17.570261 6.312836 -18.466323 5.835465 -19.005547 4.99174 L -19.015062 4.974294 C -19.292604 4.527056 -19.465472 3.918051 -19.571731 3.280499 C -20.301268 4.263788 -21.400332 5.053592 -23.067166 5.380297 C -24.248699 5.616604 -25.355692 5.473869 -26.399248 5.052006 C -27.355576 5.662597 -28.670329 5.732379 -29.769393 5.105928 C -30.108786 4.912442 -30.362538 4.682479 -30.560782 4.438243 L -30.560782 5.786301 L -30.665455 6.587206 L -30.69876 6.731527 C -30.919207 7.600628 -31.575791 8.333337 -32.452821 8.693348 L -32.460751 8.69652 C -33.425009 9.086664 -34.506627 8.993093 -35.423307 8.444354 C -36.400252 7.867068 -36.901412 6.909154 -36.901412 5.599159 L -36.901412 2.850706 C -37.248736 3.391516 -37.678528 3.862543 -38.187618 4.247929 C -39.559466 5.288312 -41.400754 5.638807 -43.50531 5.261351 C -44.726492 5.048834 -45.747845 4.515954 -46.556679 3.734081 C -46.569367 3.759456 -46.58364 3.789589 -46.596328 3.814964 C -47.007089 4.550845 -47.674774 5.056764 -48.528016 5.280383 C -49.953785 5.672112 -51.763355 5.186812 -52.510338 2.636603 C -52.510338 2.636603 -52.632456 2.224256 -52.797395 1.661243 C -53.125686 2.262319 -53.972584 3.900606 -54.007475 3.94977 C -54.771903 5.107514 -56.302345 5.61026 -57.669435 5.066279 C -58.992117 4.568291 -59.756546 3.405789 -59.756546 2.0387 C -59.756546 1.607321 -59.682006 1.158497 -59.524997 0.701743 L -59.485348 0.590727 C -59.485348 0.590727 -56.770201 -4.941069 -55.983569 -6.541293 C -57.247572 -6.874342 -58.146806 -7.816397 -58.292713 -9.108947 C -58.308573 -9.232651 -58.316503 -9.356355 -58.316503 -9.478473 C -58.316503 -10.299995 -57.975523 -11.085041 -57.349073 -11.660741 C -56.399088 -12.537772 -54.922568 -12.828001 -53.19071 -12.472748 C -51.306601 -12.103221 -50.223397 -10.967681 -49.465313 -8.560208 L -48.310741 -4.931553 C -47.933284 -6.460409 -47.24974 -7.457972 -46.601086 -8.098696 C -45.668547 -9.021719 -43.958892 -10.041486 -41.129557 -9.659271 C -39.028172 -9.365871 -37.572269 -8.425402 -36.787224 -7.318408 L -36.736474 -7.586434 C -36.511269 -8.374652 -35.902264 -9.075642 -35.085499 -9.44834 C -34.230672 -9.844828 -33.239453 -9.838484 -32.371938 -9.430895 C -31.918356 -9.234237 -31.534556 -8.92339 -31.236397 -8.533247 L -31.236397 -9.678303 C -31.236397 -11.568756 -30.142091 -12.372833 -29.490266 -12.685265 C -28.63861 -13.113472 -27.62043 -13.146777 -26.732298 -12.761391 C -25.894916 -12.398208 -25.273223 -11.70832 -25.028987 -10.869352 L -24.990924 -10.739304 L -24.876735 -9.960602 C -24.876735 -9.960602 -24.876735 -9.659271 -24.876735 -9.624381 C -23.739609 -9.741741 -22.553318 -9.556185 -21.508176 -9.01379 C -21.046665 -8.774311 -20.642247 -8.485668 -20.280651 -8.152618 L -19.513051 -8.152618 C -19.09436 -8.373066 -18.620161 -8.509457 -18.109484 -8.509457 C -17.595637 -8.509457 -17.121437 -8.373066 -16.704332 -8.152618 L -14.477658 -8.152618 C -13.002724 -8.983657 -10.847417 -9.611693 -9.692845 -9.413449 C -8.698454 -9.237409 -7.91658 -8.598271 -7.585117 -7.700623 L -7.567671 -7.656216 C -7.428108 -7.248627 -7.404318 -7.172501 -7.394803 -4.866529 C -6.1308 -6.909233 -6.065776 -6.963156 -5.710523 -7.242283 C -4.947681 -7.8386 -3.943774 -7.968648 -3.017579 -7.59595 C -1.531543 -6.999632 0.741124 -4.111616 0.969501 -2.525666 C 0.988532 -2.387688 0.999634 -2.248125 0.999634 -2.111733 C 0.999634 -1.280695 0.641209 -0.511509 0.000484722 0.000753263 Z M 0.000484722 0.000753263 " transform="matrix(2.463034,0,0,-2.463034,147.362087,40.915918)"/>
<path style="fill:none;stroke-width:0.145;stroke-linecap:round;stroke-linejoin:round;stroke:rgb(74.117647%,73.72549%,73.72549%);stroke-opacity:1;stroke-miterlimit:4;" d="M -0.0000956165 -0.000116559 C 0.00466224 -0.00170251 0.00466224 -0.00170251 0.00783414 -0.00170251 C 0.011006 -0.00328846 0.012592 -0.00328846 0.0157639 -0.00328846 Z M -0.0000956165 -0.000116559 " transform="matrix(2.463034,0,0,-2.463034,90.527579,27.659869)"/>
<path style="fill:none;stroke-width:0.145;stroke-linecap:round;stroke-linejoin:round;stroke:rgb(74.117647%,73.72549%,73.72549%);stroke-opacity:1;stroke-miterlimit:4;" d="M 0.000592747 0.0000501825 L -0.00257915 0.0000501825 C -0.00575105 0.0000501825 -0.00575105 -0.00312172 -0.00892296 -0.00470767 Z M 0.000592747 0.0000501825 " transform="matrix(2.463034,0,0,-2.463034,139.93604,59.625124)"/>
<path style=" stroke:none;fill-rule:nonzero;fill:rgb(91.372549%,91.372549%,91.372549%);fill-opacity:1;" d="M 103.796875 33.027344 C 102.90625 34.453125 102.535156 38.925781 102.84375 41.898438 C 102.949219 42.878906 103.125 43.695312 103.386719 44.183594 C 103.742188 44.859375 104.335938 45.261719 105.019531 45.285156 C 105.449219 45.308594 105.722656 45.234375 113.917969 42.59375 C 113.917969 42.59375 117.5625 41.4375 117.582031 41.429688 C 118.484375 41.195312 119.097656 40.363281 119.15625 39.296875 C 119.21875 38.199219 118.648438 37.234375 117.722656 36.886719 C 117.722656 36.886719 115.152344 35.835938 115.152344 35.835938 C 106.335938 32.203125 105.945312 32.0625 105.496094 32.058594 C 104.820312 32.027344 104.21875 32.375 103.796875 33.027344 "/>
<path style=" stroke:none;fill-rule:nonzero;fill:rgb(91.372549%,91.372549%,91.372549%);fill-opacity:1;" d="M 123.496094 60.101562 C 123.644531 59.6875 123.65625 59.40625 123.679688 50.796875 C 123.679688 50.796875 123.703125 46.988281 123.710938 46.949219 C 123.765625 46.023438 123.164062 45.167969 122.171875 44.789062 C 121.15625 44.394531 120.058594 44.636719 119.441406 45.402344 C 119.441406 45.402344 117.648438 47.53125 117.640625 47.535156 C 111.472656 54.789062 111.210938 55.117188 111.0625 55.550781 C 110.972656 55.800781 110.933594 56.070312 110.964844 56.339844 C 111.003906 56.722656 111.171875 57.109375 111.464844 57.453125 C 112.894531 59.160156 119.757812 61.683594 121.945312 61.308594 C 122.707031 61.171875 123.265625 60.738281 123.496094 60.101562 "/>
<path style=" stroke:none;fill-rule:nonzero;fill:rgb(91.372549%,91.372549%,91.372549%);fill-opacity:1;" d="M 137.414062 57.105469 C 139.488281 56.28125 144.003906 50.535156 144.320312 48.328125 C 144.429688 47.558594 144.191406 46.898438 143.65625 46.472656 C 143.316406 46.210938 143.042969 46.109375 134.855469 43.421875 C 134.855469 43.421875 131.257812 42.234375 131.21875 42.214844 C 130.34375 41.875 129.355469 42.1875 128.6875 43.011719 C 127.992188 43.855469 127.882812 44.96875 128.445312 45.8125 L 129.890625 48.164062 C 134.753906 56.066406 135.121094 56.621094 135.46875 56.898438 C 136.011719 57.320312 136.703125 57.394531 137.414062 57.105469 "/>
<path style=" stroke:none;fill-rule:nonzero;fill:rgb(91.372549%,91.372549%,91.372549%);fill-opacity:1;" d="M 133.191406 36.769531 C 142.5 34.519531 142.855469 34.402344 143.226562 34.160156 C 143.789062 33.777344 144.070312 33.144531 144.023438 32.363281 C 144.023438 32.335938 144.023438 32.316406 144.023438 32.289062 C 143.78125 30.003906 139.777344 24.054688 137.804688 23.089844 C 137.105469 22.757812 136.402344 22.78125 135.828125 23.164062 C 135.46875 23.40625 135.199219 23.75 130.21875 30.574219 C 130.21875 30.574219 127.964844 33.644531 127.9375 33.667969 C 127.34375 34.390625 127.335938 35.425781 127.914062 36.316406 C 128.511719 37.234375 129.53125 37.683594 130.464844 37.421875 C 130.464844 37.421875 130.421875 37.488281 130.414062 37.503906 C 130.871094 37.328125 131.695312 37.125 133.191406 36.769531 "/>
<path style=" stroke:none;fill-rule:nonzero;fill:rgb(91.372549%,91.372549%,91.372549%);fill-opacity:1;" d="M 123.839844 29.082031 C 123.675781 25.394531 122.570312 8.96875 122.441406 8.210938 C 122.25 7.515625 121.710938 7.023438 120.9375 6.828125 C 118.5625 6.238281 109.476562 8.789062 107.796875 10.523438 C 107.257812 11.085938 107.058594 11.78125 107.21875 12.398438 C 107.480469 12.941406 118.734375 30.648438 118.734375 30.648438 C 120.398438 33.347656 121.757812 32.925781 122.199219 32.789062 C 122.644531 32.648438 123.992188 32.230469 123.839844 29.082031 "/>
<path style=" stroke:none;fill-rule:nonzero;fill:rgb(74.901961%,14.509804%,9.803922%);fill-opacity:1;" d="M 104.539062 31.167969 C 103.652344 32.589844 103.277344 37.0625 103.585938 40.035156 C 103.695312 41.015625 103.871094 41.832031 104.132812 42.320312 C 104.484375 42.996094 105.082031 43.394531 105.761719 43.421875 C 106.199219 43.441406 106.46875 43.367188 114.664062 40.734375 C 114.664062 40.734375 118.308594 39.570312 118.324219 39.5625 C 119.230469 39.332031 119.84375 38.496094 119.902344 37.429688 C 119.960938 36.335938 119.398438 35.371094 118.464844 35.023438 C 118.464844 35.023438 115.898438 33.976562 115.890625 33.976562 C 107.085938 30.34375 106.6875 30.199219 106.246094 30.195312 C 105.5625 30.167969 104.960938 30.507812 104.539062 31.167969 "/>
<path style=" stroke:none;fill-rule:nonzero;fill:rgb(74.901961%,14.509804%,9.803922%);fill-opacity:1;" d="M 124.242188 58.234375 C 124.386719 57.820312 124.402344 57.539062 124.429688 48.929688 C 124.429688 48.929688 124.449219 45.121094 124.449219 45.085938 C 124.511719 44.152344 123.90625 43.300781 122.917969 42.921875 C 121.902344 42.53125 120.804688 42.773438 120.191406 43.539062 C 120.191406 43.539062 118.390625 45.671875 118.386719 45.671875 C 112.21875 52.921875 111.957031 53.253906 111.808594 53.683594 C 111.71875 53.933594 111.679688 54.207031 111.710938 54.476562 C 111.746094 54.859375 111.921875 55.238281 112.210938 55.59375 C 113.640625 57.292969 120.503906 59.816406 122.695312 59.441406 C 123.457031 59.304688 124.011719 58.875 124.242188 58.234375 "/>
<path style=" stroke:none;fill-rule:nonzero;fill:rgb(74.901961%,14.509804%,9.803922%);fill-opacity:1;" d="M 138.164062 55.238281 C 140.234375 54.414062 144.746094 48.671875 145.0625 46.460938 C 145.175781 45.695312 144.933594 45.03125 144.402344 44.609375 C 144.058594 44.347656 143.792969 44.246094 135.601562 41.554688 C 135.601562 41.554688 132.007812 40.367188 131.960938 40.347656 C 131.089844 40.007812 130.097656 40.324219 129.429688 41.144531 C 128.738281 41.988281 128.632812 43.105469 129.1875 43.949219 L 130.632812 46.300781 C 135.496094 54.199219 135.867188 54.757812 136.21875 55.03125 C 136.757812 55.457031 137.449219 55.527344 138.164062 55.238281 "/>
<path style=" stroke:none;fill-rule:nonzero;fill:rgb(74.901961%,14.509804%,9.803922%);fill-opacity:1;" d="M 133.929688 34.910156 C 143.242188 32.652344 143.601562 32.535156 143.96875 32.292969 C 144.53125 31.914062 144.816406 31.277344 144.765625 30.503906 C 144.765625 30.480469 144.769531 30.453125 144.765625 30.425781 C 144.527344 28.140625 140.523438 22.195312 138.550781 21.230469 C 137.851562 20.894531 137.148438 20.917969 136.570312 21.304688 C 136.210938 21.539062 135.945312 21.894531 130.960938 28.710938 C 130.960938 28.710938 128.710938 31.777344 128.683594 31.808594 C 128.089844 32.527344 128.078125 33.5625 128.660156 34.449219 C 129.261719 35.371094 130.277344 35.816406 131.207031 35.558594 C 131.207031 35.558594 131.171875 35.625 131.160156 35.636719 C 131.617188 35.464844 132.4375 35.261719 133.929688 34.910156 "/>
<path style=" stroke:none;fill-rule:nonzero;fill:rgb(74.901961%,14.509804%,9.803922%);fill-opacity:1;" d="M 124.585938 27.222656 C 124.425781 23.53125 123.316406 7.101562 123.183594 6.34375 C 122.996094 5.652344 122.457031 5.160156 121.683594 4.964844 C 119.308594 4.375 110.222656 6.921875 108.542969 8.65625 C 108 9.222656 107.800781 9.917969 107.964844 10.53125 C 108.230469 11.078125 119.484375 28.78125 119.484375 28.78125 C 121.144531 31.480469 122.503906 31.0625 122.949219 30.921875 C 123.390625 30.785156 124.738281 30.367188 124.585938 27.222656 "/>
<path style=" stroke:none;fill-rule:nonzero;fill:rgb(13.72549%,12.156863%,12.54902%);fill-opacity:1;" d="M 9.3125 66.160156 C 10.484375 67.25 12.707031 67.554688 15.40625 67.007812 C 17.933594 66.507812 19.503906 65.375 21.011719 60.574219 L 28.53125 36.949219 C 28.921875 35.695312 28.894531 34.609375 28.445312 33.800781 C 28.085938 33.148438 27.480469 32.710938 26.628906 32.484375 C 25.289062 32.117188 23.617188 32.152344 22.5625 35.753906 L 18.617188 49.15625 C 18.617188 49.15625 10.578125 33.972656 10.574219 33.96875 C 10.066406 32.957031 8.578125 32.230469 7.066406 32.828125 C 5.089844 33.582031 4.433594 35.355469 5.21875 37.644531 C 5.21875 37.644531 14.996094 57.539062 15.019531 57.59375 C 15.019531 57.59375 15.285156 58.300781 15.285156 58.417969 C 15.285156 58.417969 15.371094 58.957031 15.371094 58.976562 C 15.351562 59.742188 15.097656 60.386719 14.640625 60.820312 C 14.1875 61.242188 13.5625 61.464844 12.832031 61.433594 C 12.832031 61.433594 11.304688 61.402344 11.191406 61.402344 C 9.625 61.59375 8.640625 62.492188 8.480469 63.882812 C 8.371094 64.773438 8.660156 65.5625 9.3125 66.160156 "/>
<path style=" stroke:none;fill-rule:nonzero;fill:rgb(13.72549%,12.156863%,12.54902%);fill-opacity:1;" d="M 47.832031 43.761719 L 37.363281 43.761719 C 37.078125 43.554688 36.941406 43.207031 37.152344 42.164062 C 37.285156 41.613281 37.429688 41.121094 37.847656 40.429688 C 37.984375 40.222656 38.125 40.011719 38.257812 39.800781 C 39.027344 38.832031 40.0625 38.210938 41.242188 37.9375 C 44.921875 37.035156 47.488281 38.90625 47.90625 42.097656 C 48.105469 43.488281 47.972656 43.761719 47.832031 43.761719 Z M 54.265625 41.9375 C 53.925781 38.523438 52.609375 35.859375 50.449219 34.226562 C 48.148438 32.480469 44.890625 31.921875 41.039062 32.613281 C 36.207031 33.449219 33.304688 36.902344 32.640625 42.613281 C 31.820312 49.4375 32.945312 54.582031 35.898438 57.488281 C 38.125 59.6875 41.417969 60.5625 45.421875 60.023438 C 51.132812 59.21875 53.703125 56.082031 53.703125 54.101562 C 53.703125 52.640625 52.820312 51.496094 51.527344 51.320312 C 50.785156 51.171875 50.160156 51.320312 48.773438 52.558594 C 46.777344 54.296875 44.464844 54.996094 42.417969 54.476562 C 40.855469 54.082031 39.636719 53.003906 39.085938 51.527344 C 39.085938 51.527344 38.839844 50.554688 38.851562 50.664062 C 38.6875 49.78125 38.609375 48.910156 39.152344 48.554688 L 39.296875 48.457031 L 51.84375 48.457031 C 53 48.457031 53.585938 48.308594 53.925781 47.941406 C 54.613281 47.175781 54.558594 44.988281 54.265625 41.9375 "/>
<path style=" stroke:none;fill-rule:nonzero;fill:rgb(13.72549%,12.156863%,12.54902%);fill-opacity:1;" d="M 65.636719 23.882812 C 64.644531 23.480469 63.523438 23.589844 62.542969 24.175781 C 61.597656 24.734375 61.203125 25.585938 61.203125 27.125 L 61.203125 57.042969 C 61.203125 57.042969 61.367188 58.109375 61.386719 58.15625 C 61.597656 58.902344 62.148438 59.539062 62.914062 59.886719 C 63.765625 60.28125 64.746094 60.273438 65.621094 59.863281 C 66.710938 59.390625 67.355469 58.296875 67.355469 56.945312 L 67.355469 26.972656 C 67.355469 26.972656 67.164062 25.523438 67.164062 25.496094 C 66.992188 24.804688 66.417969 24.203125 65.636719 23.882812 "/>
<path style=" stroke:none;fill-rule:nonzero;fill:rgb(13.72549%,12.156863%,12.54902%);fill-opacity:1;" d="M 89.3125 54.269531 C 85.171875 54.269531 84.511719 50.59375 84.378906 47.816406 C 84.371094 47.808594 84.324219 46.191406 84.324219 46.191406 C 84.324219 46.191406 84.371094 44.988281 84.371094 44.941406 C 84.640625 40.140625 85.632812 38.246094 88.167969 37.71875 C 89.871094 37.324219 91.171875 37.515625 92.144531 38.300781 C 93.609375 39.484375 94.257812 41.980469 94.199219 46.148438 C 94.15625 51.027344 93.304688 54.269531 89.3125 54.269531 Z M 89.621094 32.304688 C 86.84375 31.738281 84.472656 32.214844 82.1875 33.761719 C 82.1875 33.761719 81.929688 33.96875 81.832031 34.027344 L 81.628906 34.128906 L 81.003906 34.410156 L 80.824219 33.710938 L 80.675781 33.457031 L 80.625 33.296875 L 80.605469 33.25 C 80.605469 33.25 80.453125 33.046875 80.429688 33.015625 C 79.777344 31.996094 77.996094 31.527344 76.390625 32.441406 C 75.605469 32.890625 75.152344 33.515625 75.152344 35.390625 L 75.152344 64.753906 C 75.152344 66.363281 75.660156 67.363281 76.761719 67.886719 C 77.691406 68.355469 78.738281 68.394531 79.636719 68.007812 C 80.402344 67.671875 80.964844 67.082031 81.171875 66.363281 L 81.359375 65.101562 L 81.359375 60.023438 L 81.304688 59.203125 L 81.324219 58.960938 L 81.359375 58.847656 L 81.660156 57.878906 L 82.578125 58.488281 C 82.578125 58.488281 82.8125 58.640625 82.910156 58.746094 L 83.183594 58.929688 C 83.1875 58.929688 83.503906 59.117188 83.503906 59.117188 C 83.511719 59.117188 83.800781 59.257812 83.800781 59.257812 C 86.265625 60.421875 89.558594 60.285156 92.210938 58.917969 C 95.550781 57.175781 97.203125 54.082031 97.585938 48.886719 C 98.382812 38.503906 95.992188 33.542969 89.621094 32.304688 "/>
<path style=" stroke:none;fill-rule:nonzero;fill:rgb(13.72549%,12.156863%,12.54902%);fill-opacity:1;" d="M 102.492188 56.570312 L 102.835938 56.570312 C 103.113281 56.570312 103.375 56.554688 103.375 56.242188 C 103.375 55.960938 103.136719 55.929688 102.921875 55.929688 L 102.492188 55.929688 Z M 102.210938 55.679688 L 102.945312 55.679688 C 103.425781 55.679688 103.652344 55.855469 103.652344 56.253906 C 103.652344 56.613281 103.421875 56.761719 103.121094 56.796875 L 103.699219 57.679688 L 103.398438 57.679688 L 102.851562 56.820312 L 102.492188 56.820312 L 102.492188 57.679688 L 102.210938 57.679688 Z M 102.859375 58.140625 C 103.671875 58.140625 104.324219 57.503906 104.324219 56.660156 C 104.324219 55.828125 103.671875 55.1875 102.859375 55.1875 C 102.046875 55.1875 101.394531 55.828125 101.394531 56.675781 C 101.394531 57.503906 102.046875 58.140625 102.859375 58.140625 Z M 102.859375 54.941406 C 103.804688 54.941406 104.601562 55.683594 104.601562 56.660156 C 104.601562 57.652344 103.804688 58.394531 102.859375 58.394531 C 101.910156 58.394531 101.117188 57.652344 101.117188 56.675781 C 101.117188 55.683594 101.910156 54.941406 102.859375 54.941406 "/>
</g>
</svg>
